<?xml version="1.0" encoding="utf-8"?>
<!-- Generator: Adobe Illustrator 24.2.1, SVG Export Plug-In . SVG Version: 6.00 Build 0)  -->
<svg version="1.1" id="Ebene_1" xmlns="http://www.w3.org/2000/svg" xmlns:xlink="http://www.w3.org/1999/xlink" x="0px" y="0px"
	 viewBox="0 0 14 14.4" style="enable-background:new 0 0 14 14.4;" xml:space="preserve">
<style type="text/css">
	.st0{fill:#0094DA;}
</style>
<rect y="7.7" class="st0" width="6.5" height="6.6"/>
<rect x="7.5" y="7.7" class="st0" width="6.5" height="6.6"/>
<path class="st0" d="M0,6.8h2.9C2.4,6.3,2,5.5,2,4.7C2,3.2,3.2,2,4.7,2c0.7,0,1.4,0.3,1.9,0.9V0H0V6.8z"/>
<path class="st0" d="M14,6.8h-2.9c0.5-0.5,0.8-1.2,0.8-2C12,3.2,10.8,2,9.4,2C8.6,2,8,2.3,7.5,2.8V0H14V6.8z"/>
<path class="st0" d="M4.7,2.7c-1,0-1.9,0.9-1.9,2c0,1.1,0.8,2,1.9,2l0,0h0c0,0,0,0,0,0c0,0,0,0,0,0h1.9v-2C6.5,3.6,5.7,2.7,4.7,2.7"
	/>
<path class="st0" d="M11.2,4.7c0-1.1-0.8-2-1.9-2c-1,0-1.9,0.9-1.9,2v2h1.9c0,0,0,0,0,0c0,0,0,0,0,0h0l0,0
	C10.4,6.8,11.2,5.9,11.2,4.7"/>
</svg>
